<?xml version="1.0" standalone="no"?>
<!DOCTYPE svg PUBLIC "-//W3C//DTD SVG 20010904//EN"
 "http://www.w3.org/TR/2001/REC-SVG-20010904/DTD/svg10.dtd">
<svg version="1.0" xmlns="http://www.w3.org/2000/svg"
 width="999.000000pt" height="988.000000pt" viewBox="0 0 999.000000 988.000000"
 preserveAspectRatio="xMidYMid meet">

<g transform="translate(0.000000,988.000000) scale(0.100000,-0.100000)"
fill="#000000" stroke="none">
<path d="M4675 8865 c-1745 -181 -3150 -1527 -3455 -3308 -52 -308 -71 -777
-41 -1062 82 -795 350 -1491 810 -2100 116 -153 234 -286 402 -450 489 -478
1070 -807 1724 -975 311 -80 587 -114 930 -114 420 0 764 54 1155 180 582 187
1086 498 1536 948 243 244 408 450 577 721 747 1202 815 2735 177 4007 -384
767 -996 1385 -1748 1765 -392 198 -791 320 -1242 379 -170 22 -648 28 -825 9z
m765 -630 c597 -80 1143 -314 1615 -689 132 -106 400 -374 509 -511 398 -499
643 -1077 731 -1725 22 -162 31 -554 16 -732 -91 -1077 -676 -2051 -1570
-2610 -388 -243 -799 -393 -1276 -465 -188 -28 -678 -25 -875 5 -694 107
-1313 419 -1811 912 -573 568 -925 1321 -999 2138 -16 171 -7 615 14 767 93
648 333 1211 730 1710 99 124 321 352 441 453 540 454 1167 711 1870 766 104
8 495 -4 605 -19z"/>
<path d="M3298 6304 c-2 -212 -1 -388 1 -390 2 -2 301 -4 663 -4 l658 0 0
-1700 0 -1700 400 0 400 0 0 1700 0 1700 655 0 655 0 0 390 0 390 -1715 0
-1715 0 -2 -386z"/>
</g>
</svg>
